<?xml version="1.0" standalone="no"?>
<!DOCTYPE svg PUBLIC "-//W3C//DTD SVG 20010904//EN"
 "http://www.w3.org/TR/2001/REC-SVG-20010904/DTD/svg10.dtd">
<svg version="1.0" xmlns="http://www.w3.org/2000/svg"
 width="1024.000000pt" height="1024.000000pt" viewBox="0 0 1024.000000 1024.000000"
 preserveAspectRatio="xMidYMid meet">

<g transform="translate(0.000000,1024.000000) scale(0.100000,-0.100000)"
fill="#000000" stroke="none">
<path d="M4995 6894 c-144 -20 -195 -29 -300 -56 -215 -53 -444 -162 -630
-300 -124 -92 -312 -290 -397 -418 -131 -197 -226 -418 -267 -625 -49 -250
-51 -444 -6 -687 101 -552 455 -1020 960 -1272 415 -207 909 -240 1362 -91
115 37 344 156 452 233 356 254 624 661 711 1078 120 575 -47 1167 -447 1584
-59 62 -145 141 -190 177 -228 178 -519 307 -808 358 -86 15 -377 28 -440 19z
m346 -38 c63 -8 144 -21 181 -30 91 -21 276 -82 318 -106 l35 -19 -98 -1
c-366 -1 -606 -204 -622 -525 -3 -45 -12 -96 -21 -117 -17 -39 -34 -50 -34
-24 0 38 -54 179 -94 246 -64 106 -82 128 -97 113 -8 -8 -1 -24 30 -65 79
-105 135 -260 151 -421 6 -56 13 -128 17 -159 3 -32 3 -58 -1 -58 -4 0 -48 20
-99 44 -51 24 -135 57 -187 72 -81 24 -113 28 -215 28 -108 0 -129 -4 -208
-31 -48 -17 -112 -46 -143 -64 -352 -211 -426 -736 -172 -1231 139 -272 326
-475 528 -572 82 -40 88 -41 185 -41 l100 0 97 53 c53 28 101 52 107 52 7 0
11 -30 11 -80 l0 -81 468 3 467 3 53 28 c65 34 123 93 154 155 l23 47 3 839 2
838 -25 57 c-32 69 -84 124 -150 159 -48 26 -58 27 -223 30 -95 2 -181 0 -190
-4 -10 -5 58 -11 158 -14 153 -5 181 -9 225 -28 65 -30 122 -85 151 -147 l24
-50 0 -830 0 -830 -24 -51 c-28 -60 -80 -115 -139 -146 -42 -23 -47 -23 -495
-26 l-452 -3 2 748 3 748 50 3 c61 4 150 -12 228 -40 32 -11 59 -19 61 -17 8
9 186 349 186 354 0 12 -177 88 -250 106 -41 11 -123 22 -181 26 l-106 6 -6
80 c-5 73 -3 86 20 131 59 119 202 278 283 318 157 76 210 104 210 112 0 16
-64 -4 -155 -48 -103 -50 -209 -134 -261 -207 -20 -27 -38 -49 -41 -49 -9 0 6
110 21 161 25 82 67 152 130 215 105 105 250 156 444 156 57 0 104 -1 106 -3
8 -10 -16 -189 -34 -255 -32 -118 -58 -163 -139 -244 -136 -134 -263 -171
-485 -138 -10 2 -21 -2 -23 -9 -7 -20 75 -37 172 -36 214 1 400 134 483 343
32 80 52 184 52 273 0 55 4 77 13 77 25 0 230 -130 322 -205 690 -561 847
-1554 362 -2293 -184 -280 -421 -488 -722 -632 -581 -279 -1273 -207 -1794
185 -311 235 -547 588 -641 960 -44 178 -54 255 -53 450 0 155 4 198 27 310
37 177 74 285 156 450 182 366 513 674 893 830 116 47 310 100 422 114 50 6
101 13 115 15 62 9 226 5 331 -8z m-531 -1077 c78 -21 252 -99 281 -125 15
-14 17 -80 18 -814 l1 -799 -22 -6 c-13 -4 -52 -24 -88 -45 -130 -76 -228 -86
-352 -36 -87 35 -160 89 -275 202 -188 186 -327 443 -390 719 -25 110 -25 321
0 428 36 154 127 293 249 383 64 47 188 99 270 114 75 13 221 3 308 -21z m606
-38 c103 -26 217 -77 212 -93 -2 -7 -38 -79 -81 -160 l-77 -147 -58 21 c-38
13 -93 22 -164 25 -105 5 -108 6 -108 29 0 19 5 22 27 21 24 -2 28 3 41 48 8
28 25 84 38 126 13 42 24 82 24 88 0 25 -18 -1 -45 -66 -16 -37 -41 -88 -57
-113 l-28 -45 0 149 0 149 98 -5 c53 -3 134 -15 178 -27z"/>
<path d="M5660 5096 c-215 -35 -242 -45 -305 -119 -20 -23 -42 -63 -49 -92 -8
-27 -22 -164 -32 -304 -17 -244 -17 -256 1 -307 42 -123 118 -170 305 -185
223 -18 206 -40 321 412 133 526 126 488 100 542 -17 34 -33 51 -65 66 -51 25
-36 26 -276 -13z m283 -16 c34 -27 52 -83 38 -118 -5 -15 -15 -49 -20 -77 -15
-77 -170 -686 -183 -718 -21 -53 -44 -60 -175 -52 -146 9 -209 30 -257 86 -63
74 -64 91 -36 499 12 173 30 229 90 287 43 42 72 51 270 84 207 34 240 35 273
9z"/>
<path d="M4750 5042 c-99 -49 -89 -208 20 -306 50 -45 147 -92 208 -102 l42
-7 0 46 c0 77 -21 200 -41 247 -35 79 -109 140 -171 140 -13 0 -39 -8 -58 -18z
m103 -26 c77 -33 121 -121 133 -269 l7 -88 -29 7 c-65 16 -156 68 -194 111
-71 81 -77 202 -12 238 34 18 55 18 95 1z"/>
<path d="M4827 4892 c-19 -21 -22 -64 -6 -94 10 -19 81 -57 107 -58 34 0 -6
138 -46 159 -28 15 -36 14 -55 -7z"/>
</g>
</svg>
